<svg width="89" height="85" viewBox="0 0 89 85" fill="none" xmlns="http://www.w3.org/2000/svg">
<path d="M32.6908 51.125H30.2742L30.7261 53.499L31.7374 58.8115L32.0469 60.4375H33.7021H75.1764C76.1093 60.4375 77.1377 61.4635 76.8358 62.891L75.9834 66.9212L75.6692 68.4064L77.0152 69.1084C79.2195 70.2581 80.8195 72.7412 80.8195 75.7031C80.8195 79.909 77.6534 83.0546 74.0703 82.9992C70.6592 82.9465 67.6172 79.9155 67.5165 75.9097C67.4619 73.7376 68.2711 71.8 69.5634 70.4399L72.7725 67.0623H68.1134H35.7199H31.0612L34.2699 70.4398C35.5212 71.7569 36.3195 73.6152 36.3195 75.7031C36.3195 79.9944 33.0301 83.1756 29.3538 82.9922C26.0846 82.8291 23.211 79.9345 23.0237 76.1069C22.8796 73.1607 24.3224 70.633 26.4117 69.3419L27.5825 68.6185L27.3251 67.2665L16.4709 10.251L16.1614 8.625H14.5062H3.70833C2.89763 8.625 2 7.87425 2 6.64062V3.98437C2 2.75074 2.89763 2 3.70833 2H19.5505C20.2545 2 21.0266 2.55015 21.2189 3.55988C21.2189 3.5599 21.2189 3.55992 21.2189 3.55994L22.6351 10.999L22.9447 12.625H24.5999H85.2901C86.223 12.625 87.2515 13.651 86.9495 15.0785L79.6452 49.6097L79.6452 49.6098C79.437 50.594 78.6787 51.125 77.9858 51.125H32.6908ZM54.6918 47.7664L54.6919 47.7663L65.0488 36.6384C66.2187 35.3815 66.3594 33.6994 65.8528 32.3854C65.3441 31.0659 64.0722 29.875 62.2736 29.875H57.625V21.9141C57.625 19.847 56.0322 17.9219 53.7708 17.9219H50.0625C47.8012 17.9219 46.2083 19.847 46.2083 21.9141V29.875H41.5598C39.7612 29.875 38.4893 31.0659 37.9806 32.3854C37.474 33.6996 37.6148 35.3816 38.7848 36.6385L49.1416 47.7663C50.6567 49.3942 53.1767 49.394 54.6918 47.7664Z" stroke="#FFC400" stroke-width="4"/>
</svg>
